<svg width="89" height="30" viewBox="0 0 89 30" fill="none" xmlns="http://www.w3.org/2000/svg">
<path d="M32.4741 24.9991L28.344 17.3841H25.7525C27.2912 17.2167 28.5869 16.6309 29.6397 15.7104C31.0164 14.5389 31.7452 13.0326 31.7452 11.2753C31.7452 9.51797 31.0164 8.0117 29.6397 6.84015C28.263 5.58492 26.4813 4.99915 24.4568 4.99915H15.3867L10.0419 19.3925L4.53503 4.99915H0V24.9991H1.13376V7.17488L7.93631 24.9991H9.23203L15.7106 7.25856V24.9991H19.9217V17.4678H23.7279L27.7771 24.9991H32.4741ZM19.9217 16.4636V6.00333H23.0801C25.3476 6.00333 26.8863 8.09538 26.8863 11.2753C26.8863 14.4552 25.3476 16.5473 23.0801 16.5473H19.9217V16.4636Z" fill="black"/>
<path d="M56.283 20.0619L54.2584 16.2125H52.9627C53.6915 16.1288 54.3394 15.7941 54.9063 15.3757C55.6351 14.7899 55.9591 14.0368 55.9591 13.1163C55.9591 12.1958 55.6351 11.5263 54.9063 10.9405C54.1774 10.3547 53.3676 10.02 52.3148 10.02H47.9418V20.0619H50.0473V16.2962H51.9909L54.0155 20.0619H56.283ZM50.0473 15.7941V10.5221H51.586C52.7198 10.5221 53.4486 11.5263 53.4486 13.1163C53.4486 14.7062 52.7198 15.7104 51.586 15.7104H50.0473V15.7941Z" fill="black"/>
<path d="M62.5997 20.0619C61.142 20.0619 59.9272 19.5598 58.9554 18.6393C57.9836 17.6351 57.4977 16.4635 57.4977 15.0409C57.4977 13.6183 57.9836 12.3631 58.9554 11.4426C59.9272 10.4384 61.142 10.02 62.5997 10.02C64.0573 10.02 65.2721 10.5221 66.2439 11.4426C67.2157 12.4468 67.7016 13.6183 67.7016 15.0409C67.7016 16.4635 67.2157 17.7188 66.2439 18.6393C65.2721 19.6434 64.0573 20.0619 62.5997 20.0619ZM62.5997 19.7271C63.4905 19.7271 64.1383 19.3087 64.7052 18.4719C65.2721 17.6351 65.515 16.4635 65.515 15.0409C65.515 13.6183 65.2721 12.5305 64.7052 11.61C64.2193 10.7732 63.4905 10.3547 62.5997 10.3547C61.7088 10.3547 61.061 10.7732 60.4941 11.61C60.0082 12.4468 59.6843 13.6183 59.6843 15.0409C59.6843 16.4635 59.9272 17.5514 60.4941 18.4719C60.98 19.3087 61.7088 19.7271 62.5997 19.7271Z" fill="black"/>
<path d="M76.7717 10.02C76.7717 10.02 76.7717 16.9656 76.7717 18.2209C76.2858 18.974 75.4759 19.3924 74.4232 19.3924C72.6415 19.3924 71.5078 18.2209 71.5078 16.2125V10.02H69.4022V15.9614C69.4022 17.133 69.8071 18.1372 70.617 18.8903C71.4268 19.6435 72.4796 19.9782 73.7753 19.9782C74.99 19.9782 75.8808 19.6435 76.6097 18.974C76.7716 18.8066 76.9336 18.6393 77.0146 18.4719L78.5533 20.0619H78.8772V10.02H76.7717Z" fill="black"/>
<path d="M85.3558 10.02C86.4086 10.02 87.2184 10.3547 87.9472 10.9405C88.6761 11.5263 89 12.2794 89 13.1163C89 14.0368 88.6761 14.7062 87.9472 15.3757C87.2184 15.9614 86.4086 16.2962 85.3558 16.2962H83.0883V20.0619H80.9827V10.02H85.3558ZM84.7079 15.7941C85.8417 15.7941 86.5705 14.7899 86.5705 13.1999C86.5705 11.61 85.8417 10.6058 84.7079 10.6058H83.1693V15.7941H84.7079Z" fill="black"/>
<path d="M43.7307 15.794C43.7307 15.794 43.7307 17.2166 43.7307 18.3045C43.4878 19.225 42.6779 19.8108 41.5442 19.8108C40.5724 19.8108 39.9245 19.3923 39.3576 18.5555C38.7908 17.7187 38.5478 16.6308 38.5478 15.2082C38.5478 12.1957 39.9245 10.4384 42.192 10.4384C43.0019 10.4384 43.6497 10.6057 44.1356 11.0241C44.7025 11.4426 44.9454 11.9446 44.9454 12.6141H45.3504C45.3504 11.861 44.9454 11.1078 44.2976 10.6057C43.6497 10.1036 42.7589 9.93628 41.7061 9.93628C40.1675 9.93628 38.9527 10.4384 37.8999 11.3589C36.9282 12.3631 36.4423 13.6183 36.4423 15.0409C36.4423 16.4635 36.9282 17.7187 37.8999 18.7229C38.8717 19.7271 40.1675 20.1455 41.5442 20.1455C42.8399 20.1455 43.8927 19.7271 44.3786 18.9739L45.5123 20.0618H45.8363V15.794H43.7307Z" fill="black"/>
</svg>
